<svg width="740" height="474" viewBox="0 0 740 474" fill="none" xmlns="http://www.w3.org/2000/svg">
<g clip-path="url(#clip0_50_8)">
<rect width="739.688" height="473.4" fill="#191919"/>
<rect y="-80.8723" width="123.281" height="123.281" rx="13.6034" stroke="#595959" stroke-width="1.27532"/>
<rect x="123.281" y="-80.8724" width="123.281" height="123.281" rx="13.6034" stroke="#595959" stroke-width="1.27532"/>
<rect x="246.563" y="-80.8724" width="123.281" height="123.281" rx="13.6034" stroke="#595959" stroke-width="1.27532"/>
<rect x="369.844" y="-80.8724" width="123.281" height="123.281" rx="13.6034" stroke="#595959" stroke-width="1.27532"/>
<rect x="493.125" y="-80.8724" width="123.281" height="123.281" rx="13.6034" stroke="#595959" stroke-width="1.27532"/>
<rect x="616.406" y="-80.8724" width="123.281" height="123.281" rx="13.6034" stroke="#595959" stroke-width="1.27532"/>
<rect y="42.4086" width="123.281" height="123.281" rx="13.6034" stroke="#595959" stroke-width="1.27532"/>
<rect x="123.281" y="42.4086" width="123.281" height="123.281" rx="13.6034" stroke="#595959" stroke-width="1.27532"/>
<rect x="246.563" y="42.4086" width="123.281" height="123.281" rx="13.6034" stroke="#595959" stroke-width="1.27532"/>
<rect x="369.844" y="42.4086" width="123.281" height="123.281" rx="13.6034" stroke="#595959" stroke-width="1.27532"/>
<rect x="493.125" y="42.4086" width="123.281" height="123.281" rx="13.6034" stroke="#595959" stroke-width="1.27532"/>
<rect x="616.406" y="42.4086" width="123.281" height="123.281" rx="13.6034" stroke="#595959" stroke-width="1.27532"/>
<rect y="165.69" width="123.281" height="123.281" rx="13.6034" stroke="#595959" stroke-width="1.27532"/>
<rect x="123.281" y="165.69" width="123.281" height="123.281" rx="13.6034" stroke="#595959" stroke-width="1.27532"/>
<rect x="246.563" y="165.69" width="123.281" height="123.281" rx="13.6034" stroke="#595959" stroke-width="1.27532"/>
<rect x="369.844" y="165.69" width="123.281" height="123.281" rx="13.6034" stroke="#595959" stroke-width="1.27532"/>
<rect x="493.125" y="165.69" width="123.281" height="123.281" rx="13.6034" stroke="#595959" stroke-width="1.27532"/>
<rect x="616.406" y="165.69" width="123.281" height="123.281" rx="13.6034" stroke="#595959" stroke-width="1.27532"/>
<rect y="288.971" width="123.281" height="123.281" rx="13.6034" stroke="#595959" stroke-width="1.27532"/>
<rect x="123.281" y="288.972" width="123.281" height="123.281" rx="13.6034" stroke="#595959" stroke-width="1.27532"/>
<rect x="246.563" y="288.972" width="123.281" height="123.281" rx="13.6034" stroke="#595959" stroke-width="1.27532"/>
<rect x="369.844" y="288.972" width="123.281" height="123.281" rx="13.6034" stroke="#595959" stroke-width="1.27532"/>
<rect x="493.125" y="288.972" width="123.281" height="123.281" rx="13.6034" stroke="#595959" stroke-width="1.27532"/>
<rect x="616.406" y="288.972" width="123.281" height="123.281" rx="13.6034" stroke="#595959" stroke-width="1.27532"/>
<rect y="412.252" width="123.281" height="123.281" rx="13.6034" stroke="#595959" stroke-width="1.27532"/>
<rect x="123.281" y="412.252" width="123.281" height="123.281" rx="13.6034" stroke="#595959" stroke-width="1.27532"/>
<rect x="246.563" y="412.252" width="123.281" height="123.281" rx="13.6034" stroke="#595959" stroke-width="1.27532"/>
<rect x="369.844" y="412.252" width="123.281" height="123.281" rx="13.6034" stroke="#595959" stroke-width="1.27532"/>
<rect x="493.125" y="412.252" width="123.281" height="123.281" rx="13.6034" stroke="#595959" stroke-width="1.27532"/>
<rect x="616.406" y="412.252" width="123.281" height="123.281" rx="13.6034" stroke="#595959" stroke-width="1.27532"/>
<path d="M493.125 -70.6698V28.8054C493.125 36.3184 499.215 42.4089 506.728 42.4089H602.803C610.316 42.4089 616.406 48.4993 616.406 56.0123V152.087C616.406 159.6 622.497 165.69 630.01 165.69H726.084C733.597 165.69 739.688 171.781 739.688 179.294V275.368C739.688 282.881 745.778 288.971 753.291 288.971H849.365C856.878 288.971 862.969 295.062 862.969 302.575V398.649C862.969 406.162 869.059 412.253 876.572 412.253H976.047M369.844 -70.6698V28.8054C369.844 36.3184 375.934 42.4089 383.447 42.4089H479.522C487.035 42.4089 493.125 48.4993 493.125 56.0123V152.087C493.125 159.6 499.215 165.69 506.728 165.69H602.803C610.316 165.69 616.406 171.781 616.406 179.294V275.368C616.406 282.881 610.316 288.971 602.803 288.971H506.728C499.215 288.971 493.125 282.881 493.125 275.368V177.593L493.006 176.79C492.093 170.628 486.863 166.027 480.636 165.908L469.319 165.69H383.447C375.934 165.69 369.844 171.781 369.844 179.294V275.368C369.844 282.881 375.934 288.971 383.447 288.971H480.372L483.601 289.187C488.96 289.544 493.125 293.995 493.125 299.367V309.802M493.125 299.174V398.649C493.125 406.162 499.215 412.253 506.728 412.253H602.803C610.316 412.253 616.406 418.343 616.406 425.856V521.93C616.406 529.443 622.497 535.534 630.01 535.534H726.084C733.597 535.534 739.688 541.624 739.688 549.137V645.212C739.688 652.725 745.778 658.815 753.291 658.815H849.365C856.878 658.815 862.969 664.906 862.969 672.419V768.493C862.969 776.006 869.059 782.096 876.572 782.096H976.047" stroke="url(#paint0_linear_50_8)" stroke-opacity="0.8" stroke-width="1.27532"/>
<rect y="473" width="474" height="370" transform="rotate(-90 0 473)" fill="url(#paint1_linear_50_8)"/>
<ellipse cx="521.967" cy="-46.6506" rx="459.967" ry="391.949" fill="url(#paint2_radial_50_8)"/>
</g>
<defs>
<linearGradient id="paint0_linear_50_8" x1="369.844" y1="-70.6698" x2="962.444" y2="662.641" gradientUnits="userSpaceOnUse">
<stop stop-color="#3170D7"/>
<stop offset="0.9375" stop-color="#78D2F8"/>
</linearGradient>
<linearGradient id="paint1_linear_50_8" x1="237" y1="473" x2="237.31" y2="843.156" gradientUnits="userSpaceOnUse">
<stop stop-color="#191919"/>
<stop offset="0.666667" stop-color="#191919" stop-opacity="0.79"/>
<stop offset="1" stop-color="#191919" stop-opacity="0"/>
</linearGradient>
<radialGradient id="paint2_radial_50_8" cx="0" cy="0" r="1" gradientUnits="userSpaceOnUse" gradientTransform="translate(521.967 -46.6506) rotate(90) scale(391.949 459.967)">
<stop offset="0.15625"/>
<stop offset="0.604167" stop-opacity="0.49"/>
<stop offset="1" stop-opacity="0"/>
</radialGradient>
<clipPath id="clip0_50_8">
<rect width="739.688" height="473.4" fill="white"/>
</clipPath>
</defs>
</svg>
